{
  "accessors": [
    {
      "bufferView": 2,
      "componentType": 5126,
      "count": 32811,
      "max": [
        22.505077362060547,
        95.19586181640625,
        31.153186798095703
      ],
      "min": [
        -22.505077362060547,
        -2.0861625671386719e-07,
        -17.228759765625
      ],
      "type": "VEC3"
    },
    {
      "bufferView": 2,
      "byteOffset": 393732,
      "componentType": 5126,
      "count": 32811,
      "max": [
        1,
        1,
        1
      ],
      "min": [
        -1,
        -1,
        -1
      ],
      "type": "VEC3"
    },
    {
      "bufferView": 3,
      "componentType": 5126,
      "count": 32811,
      "max": [
        1,
        1,
        1,
        1
      ],
      "min": [
        -1,
        -1,
        -1,
        -1
      ],
      "type": "VEC4"
    },
    {
      "bufferView": 1,
      "componentType": 5126,
      "count": 32811,
      "max": [
        0.99780851602554321,
        0.97881984710693359
      ],
      "min": [
        0.0021914311219006777,
        0.0021914311219006777
      ],
      "type": "VEC2"
    },
    {
      "bufferView": 1,
      "byteOffset": 262488,
      "componentType": 5126,
      "count": 32811,
      "max": [
        0.99780851602554321,
        0.97881984710693359
      ],
      "min": [
        0.0021914311219006777,
        0.0021914311219006777
      ],
      "type": "VEC2"
    },
    {
      "bufferView": 1,
      "byteOffset": 524976,
      "componentType": 5126,
      "count": 32811,
      "max": [
        0.99780851602554321,
        0.97881984710693359
      ],
      "min": [
        0.0021914311219006777,
        0.0021914311219006777
      ],
      "type": "VEC2"
    },
    {
      "bufferView": 1,
      "byteOffset": 787464,
      "componentType": 5126,
      "count": 32811,
      "max": [
        1.9701733589172363,
        1.5111027956008911
      ],
      "min": [
        -0.65380257368087769,
        -0.61802899837493896
      ],
      "type": "VEC2"
    },
    {
      "bufferView": 1,
      "byteOffset": 1049952,
      "componentType": 5126,
      "count": 32811,
      "max": [
        0.99780851602554321,
        0.97881984710693359
      ],
      "min": [
        0.0021914311219006777,
        0.0021914311219006777
      ],
      "type": "VEC2"
    },
    {
      "bufferView": 0,
      "componentType": 5125,
      "count": 126657,
      "max": [
        32810
      ],
      "min": [
        0
      ],
      "type": "SCALAR"
    }
  ],
  "asset": {
    "extras": {
      "author": "Interiors3D (https://sketchfab.com/Interiors3D)",
      "license": "CC-BY-4.0 (http://creativecommons.org/licenses/by/4.0/)",
      "source": "https://sketchfab.com/3d-models/lghc00-a5b72ce819d94b08a144817d6d05f40b",
      "title": "LGHC00"
    },
    "generator": "Sketchfab-9.24.0",
    "version": "2.0"
  },
  "bufferViews": [
    {
      "buffer": 0,
      "byteLength": 506628,
      "byteOffset": 0,
      "name": "floatBufferViews",
      "target": 34963
    },
    {
      "buffer": 0,
      "byteLength": 1312440,
      "byteOffset": 506628,
      "byteStride": 8,
      "name": "floatBufferViews",
      "target": 34962
    },
    {
      "buffer": 0,
      "byteLength": 787464,
      "byteOffset": 1819068,
      "byteStride": 12,
      "name": "floatBufferViews",
      "target": 34962
    },
    {
      "buffer": 0,
      "byteLength": 524976,
      "byteOffset": 2606532,
      "byteStride": 16,
      "name": "floatBufferViews",
      "target": 34962
    }
  ],
  "buffers": [
    {
      "byteLength": 3131508,
      "uri": "scene.bin"
    }
  ],
  "images": [
    {
      "uri": "textures/Gustavien_baseColor.jpeg"
    },
    {
      "uri": "textures/Gustavien_metallicRoughness.png"
    },
    {
      "uri": "textures/Gustavien_normal.png"
    }
  ],
  "materials": [
    {
      "doubleSided": true,
      "name": "Gustavien",
      "normalTexture": {
        "index": 2,
        "scale": 1,
        "texCoord": 2
      },
      "pbrMetallicRoughness": {
        "baseColorFactor": [
          0.69999999999999996,
          0.69999999999999996,
          0.69999999999999996,
          1
        ],
        "baseColorTexture": {
          "index": 0,
          "texCoord": 0
        },
        "metallicFactor": 0,
        "metallicRoughnessTexture": {
          "index": 1,
          "texCoord": 1
        },
        "roughnessFactor": 0.90000000000000002
      }
    }
  ],
  "meshes": [
    {
      "primitives": [
        {
          "attributes": {
            "NORMAL": 1,
            "POSITION": 0,
            "TANGENT": 2,
            "TEXCOORD_0": 3,
            "TEXCOORD_1": 4,
            "TEXCOORD_2": 5,
            "TEXCOORD_3": 6,
            "TEXCOORD_4": 7
          },
          "indices": 8,
          "material": 0,
          "mode": 4
        }
      ]
    }
  ],
  "nodes": [
    {
      "children": [
        1
      ],
      "name": "RootNode (gltf orientation matrix)",
      "rotation": [
        -0.70710678118654746,
        -0,
        -0,
        0.70710678118654757
      ]
    },
    {
      "children": [
        2
      ],
      "name": "RootNode (model correction matrix)"
    },
    {
      "children": [
        3
      ],
      "name": "root"
    },
    {
      "children": [
        4
      ],
      "matrix": [
        1,
        0,
        0,
        0,
        0,
        2.2204460492503131e-16,
        1,
        0,
        0,
        -1,
        2.2204460492503131e-16,
        0,
        0,
        0,
        0,
        1
      ],
      "name": "GLTF_SceneRootNode"
    },
    {
      "children": [
        5
      ],
      "name": "LGHC.paint_0"
    },
    {
      "mesh": 0,
      "name": ""
    }
  ],
  "samplers": [
    {
      "magFilter": 9729,
      "minFilter": 9987,
      "wrapS": 10497,
      "wrapT": 10497
    }
  ],
  "scene": 0,
  "scenes": [
    {
      "name": "OSG_Scene",
      "nodes": [
        0
      ]
    }
  ],
  "textures": [
    {
      "sampler": 0,
      "source": 0
    },
    {
      "sampler": 0,
      "source": 1
    },
    {
      "sampler": 0,
      "source": 2
    }
  ]
}

